# xmcd CD database file generated by LOLA_Freedb v0.9beta0
# 
# Track frame offsets:
#      150
#      15850
#      32485
#      46685
#      62440
#      74705
#      89910
#      106505
#      122515
#      135700
#      150757
#      164127
#      177862
#      190935
#      205555
#      218737
# 
# Disc length: 3129 seconds
# 
# Revision: 0 
# Processed by: cddbd v1.5.1PL2 Copyright (c) Steve Scherf et al.
# Submitted via: LOLA_Freedb v0.9beta0
# 
DISCID=ca0c3710
DTITLE=Various Artist - Country Lovesongs-let it be me
DYEAR=1900
DGENRE=
TTITLE0=Lacy J. dalton - Takin' it easy
TTITLE1=Ricky Skaggs - Love can't ever get better than this
TTITLE2=Merle Haggard - Natural high
TTITLE3=Willie Nelson - Let it be me
TTITLE4=Tanya Tucker - You are so beautiful
TTITLE5=George Jones - Shine on (shine all your sweet Love on me)
TTITLE6=Janie Frickie - Always have always will
TTITLE7=Marty Robbins - My woman, my woman, my wife
TTITLE8=Charlie Rich - Behind closed doors
TTITLE9=Tammy Wynette - You needed me
TTITLE10=Larry Gatlin - Nothing but your Love matters
TTITLE11=Crystal Gayle - You never gave up on me
TTITLE12=Mickey Gilley - True Love ways
TTITLE13=Lynn Anderson - I love how you love me
TTITLE14=Johnny Cash - If I were a carpenter
TTITLE15=Chet Atkins - Sunrise
EXTD=
EXTT0=
EXTT1=
EXTT2=with Janie Frickie
EXTT3=
EXTT4=
EXTT5=
EXTT6=
EXTT7=
EXTT8=
EXTT9=
EXTT10=& the Gatlin Brothers Band
EXTT11=
EXTT12=
EXTT13=
EXTT14=with June Carter
EXTT15=
PLAYORDER=
